<svg width="20" height="20" viewBox="0 0 20 20" fill="none" xmlns="http://www.w3.org/2000/svg">
<path d="M5.04005 0.800049H14.96C17.28 0.800049 19.2 2.72005 19.2 5.04005V8.48005C19.2 10.8 17.28 12.72 14.96 12.72H10.68L6.52005 16.88C6.48005 16.88 6.12005 17.32 5.64005 17.16C5.32005 17.08 5.12005 16.8 5.12005 16.48V12.72C2.72005 12.72 0.800049 10.88 0.800049 8.48005V5.04005C0.800049 2.72005 2.72005 0.800049 5.04005 0.800049ZM4.84005 9.60005C4.60005 9.60005 4.44005 9.44005 4.44005 9.20005C4.44005 8.96005 4.60005 8.80005 4.84005 8.80005H10.56C10.8 8.80005 10.96 8.96005 10.96 9.20005C10.96 9.44005 10.8 9.60005 10.56 9.60005H4.84005ZM4.84005 7.32005C4.60005 7.32005 4.44005 7.12005 4.44005 6.92005C4.44005 6.68005 4.60005 6.52005 4.84005 6.52005H15.16C15.4 6.52005 15.56 6.68005 15.56 6.92005C15.56 7.12005 15.4 7.32005 15.16 7.32005H4.84005ZM4.84005 5.00005C4.60005 5.00005 4.44005 4.84005 4.44005 4.60005C4.44005 4.36005 4.60005 4.20005 4.84005 4.20005H13.12C13.32 4.20005 13.52 4.36005 13.52 4.60005C13.52 4.84005 13.32 5.00005 13.12 5.00005H4.84005ZM14.96 1.92005H5.04005C3.32005 1.92005 1.92005 3.32005 1.92005 5.04005V8.48005C1.92005 10.2 3.32005 11.6 5.04005 11.6H5.24005C5.76005 11.6 6.24005 12.08 6.24005 12.6V15.56L10.2 11.6H14.96C16.68 11.6 18.08 10.2 18.08 8.48005V5.04005C18.08 3.32005 16.68 1.92005 14.96 1.92005Z" fill="#71767B"/>
</svg>
