<svg width="20" height="20" viewBox="0 0 20 20" fill="none" xmlns="http://www.w3.org/2000/svg">
<g clip-path="url(#clip0_0_681)">
<path d="M19.3384 7.51137C18.9192 6.94223 18.3035 6.57031 17.6047 6.46426C17.4653 6.44309 17.3227 6.43336 17.1823 6.43437H12.7919V3.56551C12.7919 1.59945 11.1924 0 9.22637 0C8.90711 0 8.61778 0.188008 8.48813 0.479766L4.81129 8.75258C4.76539 8.8559 4.74168 8.96766 4.74168 9.0807V19.192C4.74168 19.6382 5.1034 19.9999 5.54957 19.9999H15.9138C15.9222 20 15.9306 20 15.9389 20C16.5666 20 17.1741 19.7769 17.6528 19.37C18.1391 18.9567 18.4597 18.3815 18.5552 17.7518L19.8238 9.47773C19.9299 8.77891 19.7575 8.08055 19.3384 7.51137ZM18.2265 9.23406L16.9579 17.5082C16.8818 18.0095 16.4449 18.3842 15.9389 18.3842C15.9351 18.3842 15.9311 18.3842 15.9273 18.3841C15.9243 18.3841 15.9213 18.3841 15.9182 18.3841H6.3575V9.25219L9.72297 1.67988C10.5583 1.90004 11.1761 2.66195 11.1761 3.56551V7.24234C11.1761 7.68852 11.5378 8.05023 11.984 8.05023H17.1866C17.1897 8.05023 17.1927 8.05023 17.1958 8.0502C17.2512 8.04969 17.3072 8.05348 17.3622 8.0618C17.6343 8.10309 17.8741 8.24793 18.0373 8.46957C18.2006 8.69121 18.2677 8.96313 18.2265 9.23406Z" fill="#71767B"/>
<path d="M5.54958 18.3842H2.79196C2.22375 18.3842 1.76145 17.9219 1.76145 17.3537V10.9192C1.76145 10.351 2.22375 9.88873 2.79196 9.88873H5.54958C5.99575 9.88873 6.35747 9.52701 6.35747 9.08084C6.35747 8.63467 5.99575 8.27295 5.54958 8.27295H2.79196C1.33278 8.27295 0.14563 9.4601 0.14563 10.9193V17.3537C0.14563 18.8129 1.33278 20 2.79196 20H5.54958C5.99579 20 6.35747 19.6383 6.35747 19.1921C6.35747 18.7458 5.99575 18.3842 5.54958 18.3842Z" fill="#71767B"/>
</g>
<defs>
<clipPath id="clip0_0_681">
<rect width="20" height="20" fill="white"/>
</clipPath>
</defs>
</svg>
