<svg width="32" height="32" viewBox="0 0 32 32" fill="none" xmlns="http://www.w3.org/2000/svg">
<path d="M16 22C16.3956 22 16.7822 22.1173 17.1111 22.3371C17.44 22.5568 17.6964 22.8692 17.8478 23.2346C17.9991 23.6001 18.0387 24.0022 17.9616 24.3902C17.8844 24.7781 17.6939 25.1345 17.4142 25.4142C17.1345 25.6939 16.7781 25.8844 16.3902 25.9616C16.0022 26.0387 15.6001 25.9991 15.2346 25.8478C14.8692 25.6964 14.5568 25.44 14.3371 25.1111C14.1173 24.7822 14 24.3956 14 24C14.0006 23.4698 14.2115 22.9614 14.5865 22.5865C14.9614 22.2115 15.4698 22.0006 16 22ZM14 8C14 8.39556 14.1173 8.78224 14.3371 9.11114C14.5568 9.44004 14.8692 9.69638 15.2346 9.84776C15.6001 9.99913 16.0022 10.0387 16.3902 9.96157C16.7781 9.8844 17.1345 9.69392 17.4142 9.41421C17.6939 9.13451 17.8844 8.77814 17.9616 8.39018C18.0387 8.00222 17.9991 7.60008 17.8478 7.23463C17.6964 6.86918 17.44 6.55682 17.1111 6.33706C16.7822 6.1173 16.3956 6 16 6C15.4698 6.0006 14.9614 6.21151 14.5865 6.58645C14.2115 6.9614 14.0006 7.46975 14 8ZM14 16C14 16.3956 14.1173 16.7822 14.3371 17.1111C14.5568 17.44 14.8692 17.6964 15.2346 17.8478C15.6001 17.9991 16.0022 18.0387 16.3902 17.9616C16.7781 17.8844 17.1345 17.6939 17.4142 17.4142C17.6939 17.1345 17.8844 16.7781 17.9616 16.3902C18.0387 16.0022 17.9991 15.6001 17.8478 15.2346C17.6964 14.8692 17.44 14.5568 17.1111 14.3371C16.7822 14.1173 16.3956 14 16 14C15.4698 14.0006 14.9614 14.2115 14.5865 14.5865C14.2115 14.9614 14.0006 15.4698 14 16Z" fill="#71767B"/>
</svg>
